<?xml version="1.0" encoding="utf-8"?>
<!-- Svg Vector Icons : http://www.onlinewebfonts.com/icon -->
<!DOCTYPE svg PUBLIC "-//W3C//DTD SVG 1.1//EN" "http://www.w3.org/Graphics/SVG/1.1/DTD/svg11.dtd">
<svg fill="#e1c5fb" version="1.1" xmlns="http://www.w3.org/2000/svg" xmlns:xlink="http://www.w3.org/1999/xlink" x="0px" y="0px" viewBox="0 0 1000 1000" enable-background="new 0 0 1000 1000" xml:space="preserve">
<metadata> Svg Vector Icons : http://www.onlinewebfonts.com/icon </metadata>
<g><g><g><path d="M889.5,990h-779C55.1,990,10,944.9,10,889.5v-779C10,55.1,55.1,10,110.5,10h779C944.9,10,990,55.1,990,110.5v779C990,944.9,944.9,990,889.5,990z M110.5,60.3c-27.7,0-50.2,22.5-50.2,50.3v779c0,27.7,22.5,50.3,50.2,50.3h779c27.7,0,50.3-22.5,50.3-50.3v-779c0-27.7-22.6-50.3-50.3-50.3H110.5z"/><rect x="271.8" y="462.3" width="456.5" height="75.4"/><rect x="462.3" y="271.8" width="75.4" height="456.5"/></g></g><g></g><g></g><g></g><g></g><g></g><g></g><g></g><g></g><g></g><g></g><g></g><g></g><g></g><g></g><g></g></g>
</svg>